<?xml version="1.0" encoding="UTF-8"?>
<svg id="_ÎÓÈ_1" data-name="—ÎÓÈ_1" xmlns="http://www.w3.org/2000/svg" xmlns:xlink="http://www.w3.org/1999/xlink" version="1.1" viewBox="0 0 1224.9 855.6">
  <defs>
    <style>
      .cls-1 {
        fill: #b54a4e;
      }

      .cls-1, .cls-2, .cls-3, .cls-4, .cls-5 {
        stroke-width: 0px;
      }

      .cls-2 {
        fill: url(#linear-gradient);
      }

      .cls-3 {
        fill: #000;
      }

      .cls-4 {
        fill: url(#linear-gradient-2);
      }

      .cls-5 {
        fill: #fff;
      }
    </style>
    <linearGradient id="linear-gradient" x1="-287.7" y1="738.7" x2="1488.1" y2="738.7" gradientUnits="userSpaceOnUse">
      <stop offset="0" stop-color="#390963"/>
      <stop offset=".2" stop-color="#721a6e"/>
      <stop offset=".5" stop-color="#a92e5e"/>
      <stop offset=".6" stop-color="#da4e3c"/>
      <stop offset="1" stop-color="#f06f20"/>
      <stop offset="1" stop-color="#fb9706"/>
    </linearGradient>
    <linearGradient id="linear-gradient-2" x1="426.1" y1="124.1" x2="796.5" y2="494.5" gradientUnits="userSpaceOnUse">
      <stop offset="0" stop-color="#390963"/>
      <stop offset=".2" stop-color="#721a6e"/>
      <stop offset=".5" stop-color="#a92e5e"/>
      <stop offset=".6" stop-color="#da4e3c"/>
      <stop offset=".8" stop-color="#f06f20"/>
      <stop offset="1" stop-color="#fb9706"/>
    </linearGradient>
  </defs>
  <g>
    <g>
      <path class="cls-3" d="M115.2,668.7c6.7,0,12.7.6,18.2,1.8,5.5,1.2,10.2,3.1,14.1,5.8,3.9,2.7,7,6.2,9.1,10.7,2.2,4.4,3.2,9.9,3.2,16.5s-1.6,12.9-4.8,17.6c-3.2,4.7-7.9,8.6-14.2,11.6,8.6,2.5,15.1,6.8,19.3,13,4.2,6.2,6.4,13.7,6.4,22.5s-1.4,13.2-4.1,18.3c-2.7,5.2-6.4,9.4-11.1,12.6-4.6,3.3-9.9,5.7-15.9,7.3-5.9,1.6-12.1,2.4-18.3,2.4H49.3v-140h65.9ZM111.2,725.3c5.5,0,10-1.3,13.5-3.9,3.5-2.6,5.3-6.9,5.3-12.7s-.6-5.9-1.8-8c-1.2-2.1-2.7-3.7-4.7-4.9-2-1.2-4.2-2-6.8-2.5-2.5-.5-5.2-.7-7.9-.7h-28.8v32.7h31.2ZM113,784.7c3,0,5.9-.3,8.6-.9,2.7-.6,5.2-1.6,7.3-2.9,2.1-1.4,3.8-3.2,5-5.6,1.2-2.4,1.9-5.4,1.9-9,0-7.2-2-12.3-6.1-15.4-4.1-3.1-9.4-4.6-16.1-4.6h-33.5v38.4h32.9Z"/>
      <path class="cls-3" d="M256.2,668.7c6.3,0,11.9,1,17,3,5,2,9.3,4.8,12.9,8.3,3.6,3.5,6.3,7.6,8.2,12.3,1.9,4.6,2.8,9.6,2.8,15,0,8.2-1.7,15.4-5.2,21.4-3.5,6-9.1,10.6-17,13.7v.4c3.8,1,6.9,2.6,9.4,4.8,2.5,2.2,4.5,4.7,6.1,7.6,1.6,2.9,2.7,6.2,3.4,9.7.7,3.5,1.2,7.1,1.5,10.6.1,2.2.3,4.8.4,7.8.1,3,.4,6.1.7,9.2.3,3.1.8,6.1,1.6,8.9.7,2.8,1.8,5.2,3.2,7.2h-30.8c-1.7-4.4-2.7-9.7-3.1-15.9-.4-6.1-1-12-1.8-17.6-1-7.3-3.3-12.7-6.7-16.1-3.4-3.4-9-5.1-16.7-5.1h-30.8v54.7h-30.8v-140h75.5ZM245.3,732c7.1,0,12.4-1.6,15.9-4.7,3.5-3.1,5.3-8.2,5.3-15.3s-1.8-11.7-5.3-14.8c-3.5-3.1-8.8-4.6-15.9-4.6h-33.7v39.4h33.7Z"/>
      <path class="cls-3" d="M389.5,668.7l52.4,140h-32l-10.6-31.2h-52.4l-11,31.2h-31l52.9-140h31.6ZM391.2,754.5l-17.6-51.4h-.4l-18.2,51.4h36.3Z"/>
      <path class="cls-3" d="M478.8,668.7l58.4,93.9h.4v-93.9h28.8v140h-30.8l-58.2-93.7h-.4v93.7h-28.8v-140h30.6Z"/>
      <path class="cls-3" d="M647.8,668.7c9,0,17.4,1.4,25.2,4.3,7.8,2.9,14.5,7.2,20.2,12.9,5.7,5.8,10.1,12.9,13.3,21.6,3.2,8.6,4.8,18.8,4.8,30.4s-1.3,19.6-3.9,28.2c-2.6,8.6-6.6,16.1-11.9,22.4-5.3,6.3-11.9,11.2-19.8,14.8-7.9,3.6-17.2,5.4-27.9,5.4h-60.4v-140h60.4ZM645.6,782.8c4.4,0,8.8-.7,12.9-2.2,4.2-1.4,7.9-3.8,11.2-7.2,3.3-3.3,5.9-7.7,7.8-13,2-5.4,2.9-11.9,2.9-19.6s-.7-13.4-2.1-19.1c-1.4-5.7-3.6-10.6-6.8-14.6-3.1-4.1-7.3-7.2-12.5-9.3-5.2-2.2-11.5-3.2-19.1-3.2h-22v88.2h27.5Z"/>
      <path class="cls-3" d="M893.9,668.7h9.6l-56.3,81.4v58.6h-8.6v-58.6l-55.9-81.4h9.8l50.6,74.1,50.8-74.1Z"/>
      <path class="cls-3" d="M927.3,668.7h12.4l54.7,130.4h.4l54.1-130.4h12.4v140h-8.6v-129.4h-.4l-53.3,129.4h-8.6l-53.9-129.4h-.4v129.4h-8.6v-140Z"/>
      <path class="cls-3" d="M1087.6,668.7h8.6v132.6h79.4v7.5h-88v-140Z"/>
    </g>
    <g>
      <path class="cls-2" d="M115.2,668.7c6.7,0,12.7.6,18.2,1.8,5.5,1.2,10.2,3.1,14.1,5.8,3.9,2.7,7,6.2,9.1,10.7,2.2,4.4,3.2,9.9,3.2,16.5s-1.6,12.9-4.8,17.6c-3.2,4.7-7.9,8.6-14.2,11.6,8.6,2.5,15.1,6.8,19.3,13,4.2,6.2,6.4,13.7,6.4,22.5s-1.4,13.2-4.1,18.3c-2.7,5.2-6.4,9.4-11.1,12.6-4.6,3.3-9.9,5.7-15.9,7.3-5.9,1.6-12.1,2.4-18.3,2.4H49.3v-140h65.9ZM111.2,725.3c5.5,0,10-1.3,13.5-3.9,3.5-2.6,5.3-6.9,5.3-12.7s-.6-5.9-1.8-8c-1.2-2.1-2.7-3.7-4.7-4.9-2-1.2-4.2-2-6.8-2.5-2.5-.5-5.2-.7-7.9-.7h-28.8v32.7h31.2ZM113,784.7c3,0,5.9-.3,8.6-.9,2.7-.6,5.2-1.6,7.3-2.9,2.1-1.4,3.8-3.2,5-5.6,1.2-2.4,1.9-5.4,1.9-9,0-7.2-2-12.3-6.1-15.4-4.1-3.1-9.4-4.6-16.1-4.6h-33.5v38.4h32.9Z"/>
      <path class="cls-2" d="M256.2,668.7c6.3,0,11.9,1,17,3,5,2,9.3,4.8,12.9,8.3,3.6,3.5,6.3,7.6,8.2,12.3,1.9,4.6,2.8,9.6,2.8,15,0,8.2-1.7,15.4-5.2,21.4-3.5,6-9.1,10.6-17,13.7v.4c3.8,1,6.9,2.6,9.4,4.8,2.5,2.2,4.5,4.7,6.1,7.6,1.6,2.9,2.7,6.2,3.4,9.7.7,3.5,1.2,7.1,1.5,10.6.1,2.2.3,4.8.4,7.8.1,3,.4,6.1.7,9.2.3,3.1.8,6.1,1.6,8.9.7,2.8,1.8,5.2,3.2,7.2h-30.8c-1.7-4.4-2.7-9.7-3.1-15.9-.4-6.1-1-12-1.8-17.6-1-7.3-3.3-12.7-6.7-16.1-3.4-3.4-9-5.1-16.7-5.1h-30.8v54.7h-30.8v-140h75.5ZM245.3,732c7.1,0,12.4-1.6,15.9-4.7,3.5-3.1,5.3-8.2,5.3-15.3s-1.8-11.7-5.3-14.8c-3.5-3.1-8.8-4.6-15.9-4.6h-33.7v39.4h33.7Z"/>
      <path class="cls-2" d="M389.5,668.7l52.4,140h-32l-10.6-31.2h-52.4l-11,31.2h-31l52.9-140h31.6ZM391.2,754.5l-17.6-51.4h-.4l-18.2,51.4h36.3Z"/>
      <path class="cls-2" d="M478.8,668.7l58.4,93.9h.4v-93.9h28.8v140h-30.8l-58.2-93.7h-.4v93.7h-28.8v-140h30.6Z"/>
      <path class="cls-2" d="M647.8,668.7c9,0,17.4,1.4,25.2,4.3,7.8,2.9,14.5,7.2,20.2,12.9,5.7,5.8,10.1,12.9,13.3,21.6,3.2,8.6,4.8,18.8,4.8,30.4s-1.3,19.6-3.9,28.2c-2.6,8.6-6.6,16.1-11.9,22.4-5.3,6.3-11.9,11.2-19.8,14.8-7.9,3.6-17.2,5.4-27.9,5.4h-60.4v-140h60.4ZM645.6,782.8c4.4,0,8.8-.7,12.9-2.2,4.2-1.4,7.9-3.8,11.2-7.2,3.3-3.3,5.9-7.7,7.8-13,2-5.4,2.9-11.9,2.9-19.6s-.7-13.4-2.1-19.1c-1.4-5.7-3.6-10.6-6.8-14.6-3.1-4.1-7.3-7.2-12.5-9.3-5.2-2.2-11.5-3.2-19.1-3.2h-22v88.2h27.5Z"/>
      <path class="cls-2" d="M893.9,668.7h9.6l-56.3,81.4v58.6h-8.6v-58.6l-55.9-81.4h9.8l50.6,74.1,50.8-74.1Z"/>
      <path class="cls-2" d="M927.3,668.7h12.4l54.7,130.4h.4l54.1-130.4h12.4v140h-8.6v-129.4h-.4l-53.3,129.4h-8.6l-53.9-129.4h-.4v129.4h-8.6v-140Z"/>
      <path class="cls-2" d="M1087.6,668.7h8.6v132.6h79.4v7.5h-88v-140Z"/>
    </g>
  </g>
  <g>
    <rect class="cls-4" x="349.4" y="47.4" width="523.7" height="523.7" rx="261.9" ry="261.9"/>
    <g>
      <g>
        <polygon class="cls-5" points="533.3 308.5 533.3 352.2 712.4 353.3 712.4 309.6 533.3 308.5"/>
        <polygon class="cls-5" points="712.4 356.7 533.3 355.6 533.3 365.9 712.4 367 712.4 356.7"/>
        <polygon class="cls-5" points="712.4 306.2 712.4 295.9 533.3 294.8 533.3 305.1 712.4 306.2"/>
      </g>
      <path class="cls-5" d="M712.4,292.8v-4.3c0-1.6-1.5-3.2-4.1-4.1-14.1-5-59.3-21-61-52.8-1.1-20.1,3.1-28.2,9.9-55.6,7.3-29.1-23.7-53.6-33.8-53.7-10.2,0-41.2,23.9-34.1,53.1,6.7,27.5,10.9,35.6,9.7,55.7-1.9,31.7-47.1,47-61.2,51.8-2.6.9-4.4,2.4-4.4,4v4.3l179.1,1.4Z"/>
      <path class="cls-5" d="M533.3,369.5c-.1,7.4-.3,29.8-3.7,49.8-4.1,24.4-10.3,43.5-19.4,60.4l18.7-3.7c6.6-9.1,14.4-33.6,14.4-33.6,0,0-2.7,21.4-8.2,32.4l23.1-4.6c15.9-26.8,23.8-77.3,23.8-77.3,0,0-5.2,52-16.6,75.9l75.6-14.9c9.5-16.6,26.4-70.1,26.4-70.1,0,0-4.8,46.3-14.7,67.8l7.8-1.6c9.7-9.6,26-63.1,26-63.1,0,0-4.4,44.2-14.8,60.9l16.4-3.3c5-5.9,14.2-20.9,17.3-30.4,2.9-9,7.4-36.1,7-43.4l-179.1-1.1Z"/>
    </g>
  </g>
  <circle class="cls-1" cx="761.3" cy="800" r="8.6"/>
</svg>