<?xml version="1.0" encoding="UTF-8"?>
<svg id="_ÎÓÈ_1" data-name="—ÎÓÈ_1" xmlns="http://www.w3.org/2000/svg" xmlns:xlink="http://www.w3.org/1999/xlink" version="1.1" viewBox="0 0 1597.4 383.7">
  <defs>
    <style>
      .cls-1 {
        fill: #b54a4e;
      }

      .cls-1, .cls-2, .cls-3, .cls-4, .cls-5 {
        stroke-width: 0px;
      }

      .cls-2 {
        fill: url(#linear-gradient);
      }

      .cls-3 {
        fill: #000;
      }

      .cls-4 {
        fill: url(#linear-gradient-2);
      }

      .cls-5 {
        fill: #fff;
      }
    </style>
    <linearGradient id="linear-gradient" x1="56.2" y1="56.2" x2="327.5" y2="327.5" gradientUnits="userSpaceOnUse">
      <stop offset="0" stop-color="#390963"/>
      <stop offset=".2" stop-color="#721a6e"/>
      <stop offset=".5" stop-color="#a92e5e"/>
      <stop offset=".6" stop-color="#da4e3c"/>
      <stop offset=".8" stop-color="#f06f20"/>
      <stop offset="1" stop-color="#fb9706"/>
    </linearGradient>
    <linearGradient id="linear-gradient-2" x1="125.5" y1="193.1" x2="1901.3" y2="193.1" gradientUnits="userSpaceOnUse">
      <stop offset="0" stop-color="#390963"/>
      <stop offset=".2" stop-color="#721a6e"/>
      <stop offset=".5" stop-color="#a92e5e"/>
      <stop offset=".6" stop-color="#da4e3c"/>
      <stop offset="1" stop-color="#f06f20"/>
      <stop offset="1" stop-color="#fb9706"/>
    </linearGradient>
  </defs>
  <g>
    <rect class="cls-2" x="0" y="0" width="383.7" height="383.7" rx="191.9" ry="191.9"/>
    <g>
      <g>
        <polygon class="cls-5" points="134.7 191.3 134.7 223.3 266 224.1 266 192.1 134.7 191.3"/>
        <polygon class="cls-5" points="266 226.6 134.7 225.8 134.7 233.4 266 234.1 266 226.6"/>
        <polygon class="cls-5" points="266 189.6 266 182.1 134.7 181.3 134.7 188.8 266 189.6"/>
      </g>
      <path class="cls-5" d="M266,179.8v-3.1c0-1.2-1.1-2.3-3-3-10.3-3.7-43.4-15.4-44.7-38.7-.8-14.8,2.3-20.7,7.3-40.7,5.3-21.3-17.3-39.3-24.8-39.3-7.4,0-30.2,17.5-25,38.9,4.9,20.1,8,26.1,7.1,40.8-1.4,23.3-34.5,34.5-44.9,38-1.9.6-3.2,1.7-3.2,2.9v3.1l131.2,1Z"/>
      <path class="cls-5" d="M134.7,236c-.1,5.5-.2,21.9-2.7,36.5-3,17.9-7.6,31.9-14.3,44.2l13.7-2.7c4.9-6.7,10.6-24.6,10.6-24.6,0,0-2,15.7-6,23.7l16.9-3.3c11.7-19.6,17.5-56.7,17.5-56.7,0,0-3.8,38.1-12.2,55.6l55.4-11c7-12.2,19.3-51.3,19.3-51.3,0,0-3.5,33.9-10.8,49.7l5.8-1.1c7.1-7,19-46.2,19-46.2,0,0-3.2,32.4-10.8,44.6l12-2.4c3.7-4.3,10.4-15.3,12.7-22.3,2.1-6.6,5.4-26.4,5.1-31.8l-131.2-.8Z"/>
    </g>
  </g>
  <g>
    <g>
      <path class="cls-3" d="M528.4,123.1c6.7,0,12.7.6,18.2,1.8,5.5,1.2,10.2,3.1,14.1,5.8,3.9,2.7,7,6.2,9.1,10.7,2.2,4.4,3.2,9.9,3.2,16.5s-1.6,12.9-4.8,17.6c-3.2,4.7-7.9,8.6-14.2,11.6,8.6,2.5,15.1,6.8,19.3,13,4.2,6.2,6.4,13.7,6.4,22.5s-1.4,13.2-4.1,18.3c-2.7,5.2-6.4,9.4-11.1,12.6-4.6,3.3-9.9,5.7-15.9,7.3-5.9,1.6-12.1,2.4-18.3,2.4h-67.8V123.1h65.9ZM524.4,179.8c5.5,0,10-1.3,13.5-3.9,3.5-2.6,5.3-6.9,5.3-12.7s-.6-5.9-1.8-8c-1.2-2.1-2.7-3.7-4.7-4.9-2-1.2-4.2-2-6.8-2.5-2.5-.5-5.2-.7-7.9-.7h-28.8v32.7h31.2ZM526.2,239.2c3,0,5.9-.3,8.6-.9,2.7-.6,5.2-1.6,7.3-2.9,2.1-1.4,3.8-3.2,5-5.6,1.2-2.4,1.9-5.4,1.9-9,0-7.2-2-12.3-6.1-15.4-4.1-3.1-9.4-4.6-16.1-4.6h-33.5v38.4h32.9Z"/>
      <path class="cls-3" d="M669.5,123.1c6.3,0,11.9,1,17,3,5,2,9.3,4.8,12.9,8.3,3.6,3.5,6.3,7.6,8.2,12.3,1.9,4.6,2.8,9.6,2.8,15,0,8.2-1.7,15.4-5.2,21.4-3.5,6-9.1,10.6-17,13.7v.4c3.8,1,6.9,2.6,9.4,4.8,2.5,2.2,4.5,4.7,6.1,7.6,1.6,2.9,2.7,6.2,3.4,9.7.7,3.5,1.2,7.1,1.5,10.6.1,2.2.3,4.8.4,7.8.1,3,.4,6.1.7,9.2.3,3.1.8,6.1,1.6,8.9.7,2.8,1.8,5.2,3.2,7.2h-30.8c-1.7-4.4-2.7-9.7-3.1-15.9-.4-6.1-1-12-1.8-17.6-1-7.3-3.3-12.7-6.7-16.1-3.4-3.4-9-5.1-16.7-5.1h-30.8v54.7h-30.8V123.1h75.5ZM658.5,186.5c7.1,0,12.4-1.6,15.9-4.7,3.5-3.1,5.3-8.2,5.3-15.3s-1.8-11.7-5.3-14.8c-3.5-3.1-8.8-4.6-15.9-4.6h-33.7v39.4h33.7Z"/>
      <path class="cls-3" d="M802.7,123.1l52.4,140h-32l-10.6-31.2h-52.4l-11,31.2h-31l52.9-140h31.6ZM804.4,209l-17.6-51.4h-.4l-18.2,51.4h36.3Z"/>
      <path class="cls-3" d="M892,123.1l58.4,93.9h.4v-93.9h28.8v140h-30.8l-58.2-93.7h-.4v93.7h-28.8V123.1h30.6Z"/>
      <path class="cls-3" d="M1061,123.1c9,0,17.4,1.4,25.2,4.3,7.8,2.9,14.5,7.2,20.2,12.9,5.7,5.8,10.1,12.9,13.3,21.6,3.2,8.6,4.8,18.8,4.8,30.4s-1.3,19.6-3.9,28.2c-2.6,8.6-6.6,16.1-11.9,22.4-5.3,6.3-11.9,11.2-19.8,14.8-7.9,3.6-17.2,5.4-27.9,5.4h-60.4V123.1h60.4ZM1058.8,237.3c4.4,0,8.8-.7,12.9-2.2,4.2-1.4,7.9-3.8,11.2-7.2,3.3-3.3,5.9-7.7,7.8-13,2-5.4,2.9-11.9,2.9-19.6s-.7-13.4-2.1-19.1c-1.4-5.7-3.6-10.6-6.8-14.6-3.1-4.1-7.3-7.2-12.5-9.3-5.2-2.2-11.5-3.2-19.1-3.2h-22v88.2h27.5Z"/>
      <path class="cls-3" d="M1307.2,123.1h9.6l-56.3,81.4v58.6h-8.6v-58.6l-55.9-81.4h9.8l50.6,74.1,50.8-74.1Z"/>
      <path class="cls-3" d="M1340.5,123.1h12.4l54.7,130.4h.4l54.1-130.4h12.4v140h-8.6v-129.4h-.4l-53.3,129.4h-8.6l-53.9-129.4h-.4v129.4h-8.6V123.1Z"/>
      <path class="cls-3" d="M1500.8,123.1h8.6v132.6h79.4v7.5h-88V123.1Z"/>
    </g>
    <g>
      <path class="cls-4" d="M528.4,123.1c6.7,0,12.7.6,18.2,1.8,5.5,1.2,10.2,3.1,14.1,5.8,3.9,2.7,7,6.2,9.1,10.7,2.2,4.4,3.2,9.9,3.2,16.5s-1.6,12.9-4.8,17.6c-3.2,4.7-7.9,8.6-14.2,11.6,8.6,2.5,15.1,6.8,19.3,13,4.2,6.2,6.4,13.7,6.4,22.5s-1.4,13.2-4.1,18.3c-2.7,5.2-6.4,9.4-11.1,12.6-4.6,3.3-9.9,5.7-15.9,7.3-5.9,1.6-12.1,2.4-18.3,2.4h-67.8V123.1h65.9ZM524.4,179.8c5.5,0,10-1.3,13.5-3.9,3.5-2.6,5.3-6.9,5.3-12.7s-.6-5.9-1.8-8c-1.2-2.1-2.7-3.7-4.7-4.9-2-1.2-4.2-2-6.8-2.5-2.5-.5-5.2-.7-7.9-.7h-28.8v32.7h31.2ZM526.2,239.2c3,0,5.9-.3,8.6-.9,2.7-.6,5.2-1.6,7.3-2.9,2.1-1.4,3.8-3.2,5-5.6,1.2-2.4,1.9-5.4,1.9-9,0-7.2-2-12.3-6.1-15.4-4.1-3.1-9.4-4.6-16.1-4.6h-33.5v38.4h32.9Z"/>
      <path class="cls-4" d="M669.5,123.1c6.3,0,11.9,1,17,3,5,2,9.3,4.8,12.9,8.3,3.6,3.5,6.3,7.6,8.2,12.3,1.9,4.6,2.8,9.6,2.8,15,0,8.2-1.7,15.4-5.2,21.4-3.5,6-9.1,10.6-17,13.7v.4c3.8,1,6.9,2.6,9.4,4.8,2.5,2.2,4.5,4.7,6.1,7.6,1.6,2.9,2.7,6.2,3.4,9.7.7,3.5,1.2,7.1,1.5,10.6.1,2.2.3,4.8.4,7.8.1,3,.4,6.1.7,9.2.3,3.1.8,6.1,1.6,8.9.7,2.8,1.8,5.2,3.2,7.2h-30.8c-1.7-4.4-2.7-9.7-3.1-15.9-.4-6.1-1-12-1.8-17.6-1-7.3-3.3-12.7-6.7-16.1-3.4-3.4-9-5.1-16.7-5.1h-30.8v54.7h-30.8V123.1h75.5ZM658.5,186.5c7.1,0,12.4-1.6,15.9-4.7,3.5-3.1,5.3-8.2,5.3-15.3s-1.8-11.7-5.3-14.8c-3.5-3.1-8.8-4.6-15.9-4.6h-33.7v39.4h33.7Z"/>
      <path class="cls-4" d="M802.7,123.1l52.4,140h-32l-10.6-31.2h-52.4l-11,31.2h-31l52.9-140h31.6ZM804.4,209l-17.6-51.4h-.4l-18.2,51.4h36.3Z"/>
      <path class="cls-4" d="M892,123.1l58.4,93.9h.4v-93.9h28.8v140h-30.8l-58.2-93.7h-.4v93.7h-28.8V123.1h30.6Z"/>
      <path class="cls-4" d="M1061,123.1c9,0,17.4,1.4,25.2,4.3,7.8,2.9,14.5,7.2,20.2,12.9,5.7,5.8,10.1,12.9,13.3,21.6,3.2,8.6,4.8,18.8,4.8,30.4s-1.3,19.6-3.9,28.2c-2.6,8.6-6.6,16.1-11.9,22.4-5.3,6.3-11.9,11.2-19.8,14.8-7.9,3.6-17.2,5.4-27.9,5.4h-60.4V123.1h60.4ZM1058.8,237.3c4.4,0,8.8-.7,12.9-2.2,4.2-1.4,7.9-3.8,11.2-7.2,3.3-3.3,5.9-7.7,7.8-13,2-5.4,2.9-11.9,2.9-19.6s-.7-13.4-2.1-19.1c-1.4-5.7-3.6-10.6-6.8-14.6-3.1-4.1-7.3-7.2-12.5-9.3-5.2-2.2-11.5-3.2-19.1-3.2h-22v88.2h27.5Z"/>
      <path class="cls-4" d="M1307.2,123.1h9.6l-56.3,81.4v58.6h-8.6v-58.6l-55.9-81.4h9.8l50.6,74.1,50.8-74.1Z"/>
      <path class="cls-4" d="M1340.5,123.1h12.4l54.7,130.4h.4l54.1-130.4h12.4v140h-8.6v-129.4h-.4l-53.3,129.4h-8.6l-53.9-129.4h-.4v129.4h-8.6V123.1Z"/>
      <path class="cls-4" d="M1500.8,123.1h8.6v132.6h79.4v7.5h-88V123.1Z"/>
    </g>
  </g>
  <circle class="cls-1" cx="1174.5" cy="254.5" r="8.6"/>
</svg>